<svg width="21" height="22" viewBox="0 0 21 22" fill="none" xmlns="http://www.w3.org/2000/svg">
<g id="Frame" clip-path="url(#clip0_18_335)">
<path id="Vector" d="M4.48978 10.5095L10.0097 4.99043L8.20005 3.18083L5.67021 5.71067C5.64004 5.7409 5.6042 5.76488 5.56476 5.78124C5.52531 5.7976 5.48302 5.80602 5.44031 5.80602C5.39761 5.80602 5.35532 5.7976 5.31587 5.78124C5.27642 5.76488 5.24059 5.7409 5.21042 5.71067L4.75064 5.25088C4.62349 5.12374 4.62349 4.91784 4.75064 4.7911L7.28048 2.26125L5.90071 0.881079C5.39253 0.372895 4.56894 0.372895 4.06075 0.881079L0.381243 4.56059C-0.126531 5.06877 -0.126941 5.89237 0.381243 6.40055L4.48978 10.5095ZM20.4231 5.71887C21.1926 4.94942 21.1922 3.70213 20.4231 2.93268L18.5672 1.07672C17.7977 0.30727 16.55 0.30727 15.7801 1.07672L13.8926 2.96385L18.5356 7.60682L20.4231 5.71887ZM12.9644 3.89245L0.782786 16.0724L0.0133325 20.4792C-0.090437 21.0735 0.42718 21.5911 1.02191 21.4865L5.42904 20.7138L17.6074 8.535L12.9644 3.89245ZM20.6192 15.5995L19.2394 14.2198L16.7096 16.7496C16.5824 16.8768 16.3765 16.8768 16.2498 16.7496L15.79 16.2898C15.6633 16.1627 15.6633 15.9568 15.79 15.83L18.3198 13.3002L16.5094 11.4898L10.9895 17.0088L15.0997 21.1186C15.6079 21.6268 16.4315 21.6268 16.9397 21.1186L20.6192 17.4395C21.1274 16.9313 21.1274 16.1077 20.6192 15.5995Z" fill="white"/>
</g>
<defs>
<clipPath id="clip0_18_335">
<rect width="21" height="21" fill="white" transform="translate(0 0.5)"/>
</clipPath>
</defs>
</svg>
