<svg width="21" height="22" viewBox="0 0 21 22" fill="none" xmlns="http://www.w3.org/2000/svg">
<g id="Frame" clip-path="url(#clip0_18_326)">
<path id="Vector" d="M15.75 13.625C14.8227 13.625 13.9705 13.9457 13.2977 14.482L9.09415 11.8548C9.21863 11.2917 9.21863 10.7082 9.09415 10.1452L13.2977 7.51794C13.9705 8.0543 14.8227 8.375 15.75 8.375C17.9246 8.375 19.6875 6.61211 19.6875 4.4375C19.6875 2.26289 17.9246 0.5 15.75 0.5C13.5754 0.5 11.8125 2.26289 11.8125 4.4375C11.8125 4.73109 11.8449 5.01705 11.9059 5.29231L7.70232 7.91952C7.02954 7.3832 6.17728 7.0625 5.25 7.0625C3.07539 7.0625 1.3125 8.82539 1.3125 11C1.3125 13.1746 3.07539 14.9375 5.25 14.9375C6.17728 14.9375 7.02954 14.6168 7.70232 14.0805L11.9059 16.7077C11.8437 16.9884 11.8124 17.275 11.8125 17.5625C11.8125 19.7371 13.5754 21.5 15.75 21.5C17.9246 21.5 19.6875 19.7371 19.6875 17.5625C19.6875 15.3879 17.9246 13.625 15.75 13.625Z" fill="white"/>
</g>
<defs>
<clipPath id="clip0_18_326">
<rect width="21" height="21" fill="white" transform="translate(0 0.5)"/>
</clipPath>
</defs>
</svg>
